ply
format ascii 1.0
comment Displaz native
comment Point cloud test, displaz native ply layout
comment The native layout is designed to be efficient and simple when reading and writing as binary ply
element vertex_position 20
property float x
property float y
property float z
element vertex_normal 20
property float x
property float y
property float z
element vertex_color 20
property float r
property float g
property float b
element vertex_a 20
property float 0
property float 1
end_header
 0.00000000e+00  1.00000000e+00 0
 3.24699469e-01  9.45817242e-01 0
 6.14212713e-01  7.89140509e-01 0
 8.37166478e-01  5.46948158e-01 0
 9.69400266e-01  2.45485487e-01 0
 9.96584493e-01 -8.25793455e-02 0
 9.15773327e-01 -4.01695425e-01 0
 7.35723911e-01 -6.77281572e-01 0
 4.75947393e-01 -8.79473751e-01 0
 1.64594590e-01 -9.86361303e-01 0
-1.64594590e-01 -9.86361303e-01 0
-4.75947393e-01 -8.79473751e-01 0
-7.35723911e-01 -6.77281572e-01 0
-9.15773327e-01 -4.01695425e-01 0
-9.96584493e-01 -8.25793455e-02 0
-9.69400266e-01  2.45485487e-01 0
-8.37166478e-01  5.46948158e-01 0
-6.14212713e-01  7.89140509e-01 0
-3.24699469e-01  9.45817242e-01 0
-2.44929360e-16  1.00000000e+00 0
 1.00000000e+00 -0.00000000e+00 1
 9.45817242e-01 -3.24699469e-01 1
 7.89140509e-01 -6.14212713e-01 1
 5.46948158e-01 -8.37166478e-01 1
 2.45485487e-01 -9.69400266e-01 1
-8.25793455e-02 -9.96584493e-01 1
-4.01695425e-01 -9.15773327e-01 1
-6.77281572e-01 -7.35723911e-01 1
-8.79473751e-01 -4.75947393e-01 1
-9.86361303e-01 -1.64594590e-01 1
-9.86361303e-01  1.64594590e-01 1
-8.79473751e-01  4.75947393e-01 1
-6.77281572e-01  7.35723911e-01 1
-4.01695425e-01  9.15773327e-01 1
-8.25793455e-02  9.96584493e-01 1
 2.45485487e-01  9.69400266e-01 1
 5.46948158e-01  8.37166478e-01 1
 7.89140509e-01  6.14212713e-01 1
 9.45817242e-01  3.24699469e-01 1
 1.00000000e+00  2.44929360e-16 1
0.0        1.0         0.0
0.101961   0.898039    0.0
0.376471   0.623529    0.0
0.701961   0.298039    0.0
0.941176   0.0588235   0.0
0.996078   0.00392157  0.0
0.839216   0.160784    0.0
0.541176   0.458824    0.0
0.223529   0.776471    0.0
0.0235294  0.976471    0.0
0.0235294  0.976471    0.0
0.223529   0.776471    0.0
0.541176   0.458824    0.0
0.839216   0.160784    0.0
0.996078   0.00392157  0.0
0.941176   0.0588235   0.0
0.701961   0.298039    0.0
0.376471   0.623529    0.0
0.101961   0.898039    0.0
0.0        1.0         0.0
0.00000000e+00 1.00000000e+00
1.05429745e-01 8.94570255e-01
3.77257256e-01 6.22742744e-01
7.00847712e-01 2.99152288e-01
9.39736876e-01 6.02631244e-02
9.93180652e-01 6.81934830e-03
8.38640786e-01 1.61359214e-01
5.41289673e-01 4.58710327e-01
2.26525921e-01 7.73474079e-01
2.70913791e-02 9.72908621e-01
2.70913791e-02 9.72908621e-01
2.26525921e-01 7.73474079e-01
5.41289673e-01 4.58710327e-01
8.38640786e-01 1.61359214e-01
9.93180652e-01 6.81934830e-03
9.39736876e-01 6.02631244e-02
7.00847712e-01 2.99152288e-01
3.77257256e-01 6.22742744e-01
1.05429745e-01 8.94570255e-01
5.99903913e-32 1.00000000e+00
