ply
format ascii 1.0
element vertex 343
property float x
property float y
property float z
element color 343
property float r
property float g
property float b
element edge 882
property list uchar int vertex_index
end_header
1 1 1
1 1 2
1 1 3
1 1 4
1 1 5
1 1 6
1 1 7
1 2 1
1 2 2
1 2 3
1 2 4
1 2 5
1 2 6
1 2 7
1 3 1
1 3 2
1 3 3
1 3 4
1 3 5
1 3 6
1 3 7
1 4 1
1 4 2
1 4 3
1 4 4
1 4 5
1 4 6
1 4 7
1 5 1
1 5 2
1 5 3
1 5 4
1 5 5
1 5 6
1 5 7
1 6 1
1 6 2
1 6 3
1 6 4
1 6 5
1 6 6
1 6 7
1 7 1
1 7 2
1 7 3
1 7 4
1 7 5
1 7 6
1 7 7
2 1 1
2 1 2
2 1 3
2 1 4
2 1 5
2 1 6
2 1 7
2 2 1
2 2 2
2 2 3
2 2 4
2 2 5
2 2 6
2 2 7
2 3 1
2 3 2
2 3 3
2 3 4
2 3 5
2 3 6
2 3 7
2 4 1
2 4 2
2 4 3
2 4 4
2 4 5
2 4 6
2 4 7
2 5 1
2 5 2
2 5 3
2 5 4
2 5 5
2 5 6
2 5 7
2 6 1
2 6 2
2 6 3
2 6 4
2 6 5
2 6 6
2 6 7
2 7 1
2 7 2
2 7 3
2 7 4
2 7 5
2 7 6
2 7 7
3 1 1
3 1 2
3 1 3
3 1 4
3 1 5
3 1 6
3 1 7
3 2 1
3 2 2
3 2 3
3 2 4
3 2 5
3 2 6
3 2 7
3 3 1
3 3 2
3 3 3
3 3 4
3 3 5
3 3 6
3 3 7
3 4 1
3 4 2
3 4 3
3 4 4
3 4 5
3 4 6
3 4 7
3 5 1
3 5 2
3 5 3
3 5 4
3 5 5
3 5 6
3 5 7
3 6 1
3 6 2
3 6 3
3 6 4
3 6 5
3 6 6
3 6 7
3 7 1
3 7 2
3 7 3
3 7 4
3 7 5
3 7 6
3 7 7
4 1 1
4 1 2
4 1 3
4 1 4
4 1 5
4 1 6
4 1 7
4 2 1
4 2 2
4 2 3
4 2 4
4 2 5
4 2 6
4 2 7
4 3 1
4 3 2
4 3 3
4 3 4
4 3 5
4 3 6
4 3 7
4 4 1
4 4 2
4 4 3
4 4 4
4 4 5
4 4 6
4 4 7
4 5 1
4 5 2
4 5 3
4 5 4
4 5 5
4 5 6
4 5 7
4 6 1
4 6 2
4 6 3
4 6 4
4 6 5
4 6 6
4 6 7
4 7 1
4 7 2
4 7 3
4 7 4
4 7 5
4 7 6
4 7 7
5 1 1
5 1 2
5 1 3
5 1 4
5 1 5
5 1 6
5 1 7
5 2 1
5 2 2
5 2 3
5 2 4
5 2 5
5 2 6
5 2 7
5 3 1
5 3 2
5 3 3
5 3 4
5 3 5
5 3 6
5 3 7
5 4 1
5 4 2
5 4 3
5 4 4
5 4 5
5 4 6
5 4 7
5 5 1
5 5 2
5 5 3
5 5 4
5 5 5
5 5 6
5 5 7
5 6 1
5 6 2
5 6 3
5 6 4
5 6 5
5 6 6
5 6 7
5 7 1
5 7 2
5 7 3
5 7 4
5 7 5
5 7 6
5 7 7
6 1 1
6 1 2
6 1 3
6 1 4
6 1 5
6 1 6
6 1 7
6 2 1
6 2 2
6 2 3
6 2 4
6 2 5
6 2 6
6 2 7
6 3 1
6 3 2
6 3 3
6 3 4
6 3 5
6 3 6
6 3 7
6 4 1
6 4 2
6 4 3
6 4 4
6 4 5
6 4 6
6 4 7
6 5 1
6 5 2
6 5 3
6 5 4
6 5 5
6 5 6
6 5 7
6 6 1
6 6 2
6 6 3
6 6 4
6 6 5
6 6 6
6 6 7
6 7 1
6 7 2
6 7 3
6 7 4
6 7 5
6 7 6
6 7 7
7 1 1
7 1 2
7 1 3
7 1 4
7 1 5
7 1 6
7 1 7
7 2 1
7 2 2
7 2 3
7 2 4
7 2 5
7 2 6
7 2 7
7 3 1
7 3 2
7 3 3
7 3 4
7 3 5
7 3 6
7 3 7
7 4 1
7 4 2
7 4 3
7 4 4
7 4 5
7 4 6
7 4 7
7 5 1
7 5 2
7 5 3
7 5 4
7 5 5
7 5 6
7 5 7
7 6 1
7 6 2
7 6 3
7 6 4
7 6 5
7 6 6
7 6 7
7 7 1
7 7 2
7 7 3
7 7 4
7 7 5
7 7 6
7 7 7
0.2844457485411649 0.2844457485411649 0.2844457485411649
0.6895385680296324 0.598981915196892 0.598981915196892
0.1793977677205072 0.1793977677205072 0.1793977677205072
0.3870722414091414 0.1469067099027601 0.1469067099027601
0.711602201546816 0.10384621136558425 0.10384621136558425
0.08336312661952583 0.08336312661952583 0.08336312661952583
0.9248301394026679 0.47176307401023476 0.47176307401023476
0.31773856551430546 0.31773856551430546 0.31773856551430546
0.6783056880970426 0.1465133707909967 0.1465133707909967
0.40210535797833 0.016418852882003065 0.016418852882003065
0.3916821726358035 0.3916821726358035 0.3916821726358035
0.7157353716467849 0.7157353716467849 0.7157353716467849
0.6995498942545024 0.6995498942545024 0.6995498942545024
0.5531930662732507 0.2866318179293441 0.2866318179293441
0.7249068326932855 0.7249068326932855 0.7249068326932855
0.1912230507612609 0.12165981482569688 0.12165981482569688
0.7988889192240354 0.6485473588386952 0.6485473588386952
0.11741303998370545 0.014825219686332103 0.014825219686332103
0.7048944862974467 0.7048944862974467 0.7048944862974467
0.5486206206283166 0.5486206206283166 0.5486206206283166
0.8664989668286596 0.6177987362794606 0.6177987362794606
0.7145913771681169 0.0590234085748349 0.0590234085748349
0.005359572444234129 0.005359572444234129 0.005359572444234129
0.4954293596318926 0.017973077049674435 0.017973077049674435
0.3646882644956815 0.3646882644956815 0.3646882644956815
0.05494794587416729 0.05494794587416729 0.05494794587416729
0.15898657705770614 0.15898657705770614 0.15898657705770614
0.3408992468960219 0.3408992468960219 0.3408992468960219
0.16011423479802467 0.15730298525422204 0.15730298525422204
0.38087724318610205 0.09750325014766204 0.09750325014766204
0.6498583166095713 0.5358874244363807 0.5358874244363807
0.6691456527495447 0.6691456527495447 0.6691456527495447
0.7339457223316208 0.4203523628860357 0.4203523628860357
0.7986311643387178 0.7986311643387178 0.7986311643387178
0.599776919099529 0.36392649859733406 0.36392649859733406
0.1371303075483301 0.1371303075483301 0.1371303075483301
0.3243015825458142 0.3243015825458142 0.3243015825458142
0.9408074779628748 0.30366972637135903 0.30366972637135903
0.9985394428668948 0.04450248784419064 0.04450248784419064
0.30860171698031524 0.30860171698031524 0.30860171698031524
0.6275211514080645 0.1250576611450922 0.1250576611450922
0.32778728444365 0.32778728444365 0.32778728444365
0.18126686028774852 0.11698514322122722 0.11698514322122722
0.0007586519911091383 0.0007586519911091383 0.0007586519911091383
0.938023044215764 0.9028298690564229 0.9028298690564229
0.5608989448028185 0.5608989448028185 0.5608989448028185
0.5788274379594096 0.5788274379594096 0.5788274379594096
0.15481847469479093 0.15481847469479093 0.15481847469479093
0.1859153482334026 0.1859153482334026 0.1859153482334026
0.6343011249445196 0.6343011249445196 0.6343011249445196
0.7358095603744601 0.16346530042668972 0.16346530042668972
0.2618840296227609 0.05853243458875479 0.05853243458875479
0.658938395981604 0.658938395981604 0.658938395981604
0.4925224385399094 0.4925224385399094 0.4925224385399094
0.6284831350653413 0.45233244906268166 0.45233244906268166
0.6861539170921247 0.6861539170921247 0.6861539170921247
0.07701787322809062 0.07701787322809062 0.07701787322809062
0.02928945608458844 0.02928945608458844 0.02928945608458844
0.7238559342186883 0.3524362364569358 0.3524362364569358
0.6703105821961246 0.08472498767161585 0.08472498767161585
0.7893549363948624 0.5644261551788183 0.5644261551788183
0.23235811302562337 0.23235811302562337 0.23235811302562337
0.5169467897455606 0.3700710601082253 0.3700710601082253
0.11609516989959112 0.11609516989959112 0.11609516989959112
0.2741128360657321 0.2741128360657321 0.2741128360657321
0.8985648592967523 0.878571490127557 0.878571490127557
0.1421201836758188 0.025612869359276313 0.025612869359276313
0.13365150213833932 0.13365150213833932 0.13365150213833932
0.2980811607555196 0.2980811607555196 0.2980811607555196
0.31884766578570023 0.007080439996352883 0.007080439996352883
0.09207340109571249 0.09207340109571249 0.09207340109571249
0.7137472070478186 0.7137472070478186 0.7137472070478186
0.7332580183588109 0.3014906917716911 0.3014906917716911
0.7751902861881748 0.6466057497476096 0.6466057497476096
0.27773728327914626 0.27773728327914626 0.27773728327914626
0.34335950079164834 0.34335950079164834 0.34335950079164834
0.629273933711219 0.629273933711219 0.629273933711219
0.0933237910520015 0.0933237910520015 0.0933237910520015
0.057595526063339175 0.057595526063339175 0.057595526063339175
0.5808835732250577 0.0897975374725366 0.0897975374725366
0.2736279307017908 0.1836386474623759 0.1836386474623759
0.36660000403153536 0.36660000403153536 0.36660000403153536
0.42107363151534916 0.42107363151534916 0.42107363151534916
0.5586469960540896 0.02685417158031811 0.02685417158031811
0.4195477866666515 0.4195477866666515 0.4195477866666515
0.178286796811709 0.03986506273436241 0.03986506273436241
0.1987238712528323 0.1987238712528323 0.1987238712528323
0.0185442884743503 0.0185442884743503 0.0185442884743503
0.6012322879482734 0.6012322879482734 0.6012322879482734
0.23309214816668877 0.11688941694672828 0.11688941694672828
0.14250652365123506 0.12634061159459642 0.12634061159459642
0.5749417251640585 0.10219111555229388 0.10219111555229388
0.3673785444562929 0.3673785444562929 0.3673785444562929
0.028248221632179105 0.028248221632179105 0.028248221632179105
0.9867305337702315 0.057307564486390516 0.057307564486390516
0.16619408192806984 0.16619408192806984 0.16619408192806984
0.3552561938516241 0.3552561938516241 0.3552561938516241
0.30712522567541 0.30712522567541 0.30712522567541
0.9594363220475242 0.6058451061524206 0.6058451061524206
0.7913059256751493 0.013005400902368125 0.013005400902368125
0.2344534704577168 0.211052350859249 0.211052350859249
0.8138143668489399 0.5046869572117614 0.5046869572117614
0.9634362486988439 0.962775657130162 0.962775657130162
0.9961604941710764 0.13364321404909263 0.13364321404909263
0.2253554599861145 0.19425708776652884 0.19425708776652884
0.7194627029865768 0.45798415251080016 0.45798415251080016
0.2792675132728344 0.2792675132728344 0.2792675132728344
0.5724003672282441 0.5724003672282441 0.5724003672282441
0.1066605107255525 0.019403030518081454 0.019403030518081454
0.08307724489887791 0.08307724489887791 0.08307724489887791
0.14549951179878384 0.14549951179878384 0.14549951179878384
0.9765559357267357 0.43789389586027094 0.43789389586027094
0.5577498483277492 0.39386538038101326 0.39386538038101326
0.3118473057335365 0.0027849854958366116 0.0027849854958366116
0.7046631982809874 0.2446194507769519 0.2446194507769519
0.8876094012455487 0.6852704368287603 0.6852704368287603
0.031249182044450707 0.031249182044450707 0.031249182044450707
0.6605159781915055 0.009079032958852373 0.009079032958852373
0.8776814078623165 0.35809148260580326 0.35809148260580326
0.056786179812469806 0.056786179812469806 0.056786179812469806
0.5934199991607989 0.3190529818524508 0.3190529818524508
0.7995456634421096 0.16567737292168605 0.16567737292168605
0.8759049376317678 0.6107533596792747 0.6107533596792747
0.3062487757523744 0.1691607815362579 0.1691607815362579
0.1969665850675646 0.1969665850675646 0.1969665850675646
0.6918808992101435 0.5294505434407821 0.5294505434407821
0.37055782204268084 0.33450231320007795 0.33450231320007795
0.0372696810054125 0.0372696810054125 0.0372696810054125
0.11536333780568286 0.11536333780568286 0.11536333780568286
0.11852730414857371 0.11852730414857371 0.11852730414857371
0.16707383974590284 0.16707383974590284 0.16707383974590284
0.9104348220901657 0.12354856349892973 0.12354856349892973
0.5702033474555033 0.5702033474555033 0.5702033474555033
0.23889319830218936 0.23889319830218936 0.23889319830218936
0.9448752142454186 0.7412056904396385 0.7412056904396385
0.5882289857451717 0.2312171035057755 0.2312171035057755
0.8077187986416072 0.5016017716824845 0.5016017716824845
0.24664149828504867 0.24664149828504867 0.24664149828504867
0.4982337493188689 0.4982337493188689 0.4982337493188689
0.46389765949278394 0.3482122451667593 0.3482122451667593
0.934752858791267 0.029309160560013536 0.029309160560013536
0.5834763856310299 0.08931868517397978 0.08931868517397978
0.9301956854951465 0.20321379222861724 0.20321379222861724
0.7991482788344615 0.4485821946642923 0.4485821946642923
0.40577899606749024 0.40577899606749024 0.40577899606749024
0.4249421103306896 0.38994012107011056 0.38994012107011056
0.4578659395031499 0.4578659395031499 0.4578659395031499
0.2820091975650214 0.2820091975650214 0.2820091975650214
0.8462033693492694 0.053233029008441735 0.053233029008441735
0.7494001441245308 0.10808999048155776 0.10808999048155776
0.42294297377064427 0.10701710166881306 0.10701710166881306
0.2692256699895361 0.2692256699895361 0.2692256699895361
0.3665269235038877 0.3665269235038877 0.3665269235038877
0.2815984385110344 0.2815984385110344 0.2815984385110344
0.9732819887739019 0.4741803524225692 0.4741803524225692
0.40019805263591834 0.40019805263591834 0.40019805263591834
0.45401287496020526 0.45401287496020526 0.45401287496020526
0.3299668633043329 0.3299668633043329 0.3299668633043329
0.4667804939516882 0.4667804939516882 0.4667804939516882
0.5691281613464676 0.5691281613464676 0.5691281613464676
0.44813761504129457 0.44813761504129457 0.44813761504129457
0.3755722484025361 0.3755722484025361 0.3755722484025361
0.42491240326451396 0.42491240326451396 0.42491240326451396
0.13961770460079337 0.13961770460079337 0.13961770460079337
0.47449523922598247 0.47398415358781887 0.47398415358781887
0.7184298026429723 0.6602187427789692 0.6602187427789692
0.2456884915822839 0.1172765041642454 0.1172765041642454
0.8227789843787647 0.046347632468094924 0.046347632468094924
0.9931110212417325 0.9308703868558823 0.9308703868558823
0.7853216476291562 0.7853216476291562 0.7853216476291562
0.3378799977620064 0.07157983631500087 0.07157983631500087
0.3430667517737527 0.3430667517737527 0.3430667517737527
0.9637464347992917 0.7520988870820458 0.7520988870820458
0.38002180551002795 0.38002180551002795 0.38002180551002795
0.8294822233840256 0.3478492595728824 0.3478492595728824
0.7432631307210857 0.5331223247986188 0.5331223247986188
0.13321917199012456 0.13321917199012456 0.13321917199012456
0.7138975372787884 0.14912393216944397 0.14912393216944397
0.5162943193230931 0.5162943193230931 0.5162943193230931
0.9359628793469268 0.7146872023686135 0.7146872023686135
0.5451703003988706 0.5451703003988706 0.5451703003988706
0.08928310845264442 0.08928310845264442 0.08928310845264442
0.41963793775153646 0.41963793775153646 0.41963793775153646
0.6932418756079473 0.0997024413639751 0.0997024413639751
0.9254129504777 0.5190824235119986 0.5190824235119986
0.31268064913153326 0.31268064913153326 0.31268064913153326
0.5407406400837043 0.5407406400837043 0.5407406400837043
0.16890760017828144 0.16890760017828144 0.16890760017828144
0.7163630237423346 0.5404726296513129 0.5404726296513129
0.9196134329053418 0.38205918008705386 0.38205918008705386
0.8477966138025042 0.5838865194891534 0.5838865194891534
0.024031400300146943 0.024031400300146943 0.024031400300146943
0.5900651955362848 0.5126042160345987 0.5126042160345987
0.45756066459485534 0.45756066459485534 0.45756066459485534
0.0925070618805357 0.0925070618805357 0.0925070618805357
0.4285072329410018 0.14159254955342582 0.14159254955342582
0.6105817726416041 0.12232347223476059 0.12232347223476059
0.7075105274499776 0.15113771656628705 0.15113771656628705
0.5246783666019714 0.5246783666019714 0.5246783666019714
0.9535264299995223 0.46712167927975723 0.46712167927975723
0.2838784544351982 0.031044336033769993 0.031044336033769993
0.034973099242256556 0.034973099242256556 0.034973099242256556
0.6563800492098988 0.6563800492098988 0.6563800492098988
0.000629101662546816 0.000629101662546816 0.000629101662546816
0.9989297076390626 0.5752229318232653 0.5752229318232653
0.8381204446535664 0.8381204446535664 0.8381204446535664
0.987561294212776 0.9341621723486433 0.9341621723486433
0.4165567798805194 0.4165567798805194 0.4165567798805194
0.39142404250784346 0.39142404250784346 0.39142404250784346
0.4124030380263375 0.1135157409756069 0.1135157409756069
0.26018929137499147 0.26018929137499147 0.26018929137499147
0.7656657029090841 0.7656657029090841 0.7656657029090841
0.2253512881588453 0.08857266675100606 0.08857266675100606
0.01540382311930033 0.01540382311930033 0.01540382311930033
0.9214800664923508 0.7241110411124168 0.7241110411124168
0.17615143411930045 0.17615143411930045 0.17615143411930045
0.21899391831897663 0.21899391831897663 0.21899391831897663
0.667895955958667 0.667895955958667 0.667895955958667
0.7104312436352709 0.17349103617459516 0.17349103617459516
0.5078961534321094 0.5078961534321094 0.5078961534321094
0.7034261408499494 0.4055740675983881 0.4055740675983881
0.9511986201587166 0.2860983864680222 0.2860983864680222
0.18808498250512096 0.18808498250512096 0.18808498250512096
0.24280765666985493 0.24280765666985493 0.24280765666985493
0.9139092813700043 0.8463303089299945 0.8463303089299945
0.9071337876767931 0.6237607059977581 0.6237607059977581
0.9334086212018875 0.7295927808919473 0.7295927808919473
0.618577524333012 0.3411989063329228 0.3411989063329228
0.5434766525154284 0.5434766525154284 0.5434766525154284
0.5832167712107852 0.5832167712107852 0.5832167712107852
0.06433611332318345 0.06433611332318345 0.06433611332318345
0.780841999558733 0.780841999558733 0.780841999558733
0.09874550803562832 0.09874550803562832 0.09874550803562832
0.002352576260068684 0.002352576260068684 0.002352576260068684
0.5627015142775089 0.20764326032559643 0.20764326032559643
0.8983792910217225 0.301682682588702 0.301682682588702
0.2702877407374038 0.2702877407374038 0.2702877407374038
0.8415429473198297 0.15364652443587024 0.15364652443587024
0.6916215965925807 0.6916215965925807 0.6916215965925807
0.12546186948820015 0.12546186948820015 0.12546186948820015
0.8665638565764295 0.8665638565764295 0.8665638565764295
0.7463049640539003 0.39428995442924375 0.39428995442924375
0.9251145128022507 0.0700625900250822 0.0700625900250822
0.31007199177252986 0.19935325361620304 0.19935325361620304
0.013418385998392957 0.013418385998392957 0.013418385998392957
0.1437679673488479 0.1437679673488479 0.1437679673488479
0.8692087176711285 0.0586398022290926 0.0586398022290926
0.875808183909097 0.3807075842168697 0.3807075842168697
0.7117826218825443 0.6673344591714196 0.6673344591714196
0.875421983404417 0.31371729596470743 0.31371729596470743
0.5821068504454305 0.5821068504454305 0.5821068504454305
0.7543615968627599 0.7192179148513602 0.7192179148513602
0.05841093008917175 0.05841093008917175 0.05841093008917175
0.9807011857559731 0.5454501511429259 0.5454501511429259
0.11290893916972644 0.11290893916972644 0.11290893916972644
0.9643806172817284 0.5816342912058523 0.5816342912058523
0.26816845080696705 0.014281499266859843 0.014281499266859843
0.8319394556150874 0.4434596622079878 0.4434596622079878
0.03468002828649874 0.03468002828649874 0.03468002828649874
0.3830491155062672 0.3830491155062672 0.3830491155062672
0.7605735743401147 0.07448482420198155 0.07448482420198155
0.16673087552886479 0.16673087552886479 0.16673087552886479
0.7389368603368835 0.7271847744870996 0.7271847744870996
0.05735507244897309 0.05735507244897309 0.05735507244897309
0.7246171129553103 0.5914307718396468 0.5914307718396468
0.5166160854710198 0.5166160854710198 0.5166160854710198
0.23580713701013223 0.16686519982503856 0.16686519982503856
0.24313789671429498 0.24313789671429498 0.24313789671429498
0.4077865882397267 0.1326968208412327 0.1326968208412327
0.5036199636781429 0.4876178606400927 0.4876178606400927
0.03243289933375637 0.031090700023357565 0.031090700023357565
0.3765944525194025 0.3765944525194025 0.3765944525194025
0.5350313826717281 0.5350313826717281 0.5350313826717281
0.9706380764147966 0.961005576438867 0.961005576438867
0.09485037690754283 0.09485037690754283 0.09485037690754283
0.8057179689413507 0.275733794904206 0.275733794904206
0.5903830970520414 0.16238426014845553 0.16238426014845553
0.1056072369498644 0.1056072369498644 0.1056072369498644
0.11056013015575217 0.11056013015575217 0.11056013015575217
0.1329918729405044 0.007893940742381922 0.007893940742381922
0.19237671029090242 0.19237671029090242 0.19237671029090242
0.5620571707628226 0.5019521815171013 0.5019521815171013
0.27283959007313174 0.27283959007313174 0.27283959007313174
0.08807748525066206 0.08807748525066206 0.08807748525066206
0.9163284908338147 0.060744991989658326 0.060744991989658326
0.1623436355351915 0.1623436355351915 0.1623436355351915
0.5614105366967301 0.5614105366967301 0.5614105366967301
0.7230253324967175 0.370256235230658 0.370256235230658
0.33815108091694523 0.33815108091694523 0.33815108091694523
0.5991426130070527 0.5991426130070527 0.5991426130070527
0.1773648087543518 0.1773648087543518 0.1773648087543518
0.7629229971255702 0.4308896119772039 0.4308896119772039
0.9296658556469117 0.23551523204991764 0.23551523204991764
0.020681015883153853 0.020681015883153853 0.020681015883153853
0.6432528495608993 0.11633754872858271 0.11633754872858271
0.5325951663430215 0.5325951663430215 0.5325951663430215
0.7019104403055565 0.5078831778276376 0.5078831778276376
0.49196341443829894 0.018329902088861427 0.018329902088861427
0.31196623202750007 0.31196623202750007 0.31196623202750007
0.1749404919842552 0.1749404919842552 0.1749404919842552
0.4514601324052241 0.4104219638614788 0.4104219638614788
0.6180234383065215 0.004275540965517521 0.004275540965517521
0.06248904315374926 0.06248904315374926 0.06248904315374926
0.7854118079585797 0.7854118079585797 0.7854118079585797
0.3811854576420721 0.3811854576420721 0.3811854576420721
0.9394183666851519 0.03806078571781257 0.03806078571781257
0.38096121417194473 0.38096121417194473 0.38096121417194473
0.6999075601368385 0.35673936988011534 0.35673936988011534
0.1096022486928343 0.1096022486928343 0.1096022486928343
0.6860243753564126 0.20597813292923495 0.20597813292923495
0.6311625314501801 0.6311625314501801 0.6311625314501801
0.17807216571887707 0.05669757089068317 0.05669757089068317
0.318730664030489 0.318730664030489 0.318730664030489
0.5751084369295667 0.5751084369295667 0.5751084369295667
0.3546555157828415 0.21723818494840175 0.21723818494840175
0.8847018644180848 0.5093988454519589 0.5093988454519589
0.542916852186152 0.36828329129839266 0.36828329129839266
0.7261846680036288 0.7261846680036288 0.7261846680036288
0.8621451221359626 0.3612219995514969 0.3612219995514969
0.666898447420817 0.2703913127841324 0.2703913127841324
0.020567981857492867 0.020567981857492867 0.020567981857492867
0.25804144221037384 0.25804144221037384 0.25804144221037384
0.04530016801089998 0.04530016801089998 0.04530016801089998
0.883744303057058 0.6722410933916771 0.6722410933916771
0.4861207291578018 0.4861207291578018 0.4861207291578018
0.6632502124081052 0.6632502124081052 0.6632502124081052
0.500088430339759 0.500088430339759 0.500088430339759
0.6527317761618407 0.6527317761618407 0.6527317761618407
0.8606694884883221 0.7607604797342049 0.7607604797342049
0.15193020974910842 0.15193020974910842 0.15193020974910842
0.22409285459664496 0.22409285459664496 0.22409285459664496
0.5023081637872142 0.16490640901541087 0.16490640901541087
0.46108247217009946 0.46108247217009946 0.46108247217009946
0.2795826399552457 0.0019270388988612552 0.0019270388988612552
0.10041476401666083 0.018408252893704624 0.018408252893704624
0.21505827614396744 0.1634737656217804 0.1634737656217804
0.028040405790467515 0.028040405790467515 0.028040405790467515
0.8017348959274846 0.23398703461763115 0.23398703461763115
0.8671641499948053 0.8671641499948053 0.8671641499948053
0.9130752596959988 0.15243962170483227 0.15243962170483227
0.05547494944263098 0.05547494944263098 0.05547494944263098
0.8620282400696895 0.21618162977054212 0.21618162977054212
0.5228636284876742 0.14533563234580038 0.14533563234580038
2 0 49
2 49 98
2 98 147
2 147 196
2 196 245
2 245 294
2 7 56
2 56 105
2 105 154
2 154 203
2 203 252
2 252 301
2 14 63
2 63 112
2 112 161
2 161 210
2 210 259
2 259 308
2 21 70
2 70 119
2 119 168
2 168 217
2 217 266
2 266 315
2 28 77
2 77 126
2 126 175
2 175 224
2 224 273
2 273 322
2 35 84
2 84 133
2 133 182
2 182 231
2 231 280
2 280 329
2 42 91
2 91 140
2 140 189
2 189 238
2 238 287
2 287 336
2 1 50
2 50 99
2 99 148
2 148 197
2 197 246
2 246 295
2 8 57
2 57 106
2 106 155
2 155 204
2 204 253
2 253 302
2 15 64
2 64 113
2 113 162
2 162 211
2 211 260
2 260 309
2 22 71
2 71 120
2 120 169
2 169 218
2 218 267
2 267 316
2 29 78
2 78 127
2 127 176
2 176 225
2 225 274
2 274 323
2 36 85
2 85 134
2 134 183
2 183 232
2 232 281
2 281 330
2 43 92
2 92 141
2 141 190
2 190 239
2 239 288
2 288 337
2 2 51
2 51 100
2 100 149
2 149 198
2 198 247
2 247 296
2 9 58
2 58 107
2 107 156
2 156 205
2 205 254
2 254 303
2 16 65
2 65 114
2 114 163
2 163 212
2 212 261
2 261 310
2 23 72
2 72 121
2 121 170
2 170 219
2 219 268
2 268 317
2 30 79
2 79 128
2 128 177
2 177 226
2 226 275
2 275 324
2 37 86
2 86 135
2 135 184
2 184 233
2 233 282
2 282 331
2 44 93
2 93 142
2 142 191
2 191 240
2 240 289
2 289 338
2 3 52
2 52 101
2 101 150
2 150 199
2 199 248
2 248 297
2 10 59
2 59 108
2 108 157
2 157 206
2 206 255
2 255 304
2 17 66
2 66 115
2 115 164
2 164 213
2 213 262
2 262 311
2 24 73
2 73 122
2 122 171
2 171 220
2 220 269
2 269 318
2 31 80
2 80 129
2 129 178
2 178 227
2 227 276
2 276 325
2 38 87
2 87 136
2 136 185
2 185 234
2 234 283
2 283 332
2 45 94
2 94 143
2 143 192
2 192 241
2 241 290
2 290 339
2 4 53
2 53 102
2 102 151
2 151 200
2 200 249
2 249 298
2 11 60
2 60 109
2 109 158
2 158 207
2 207 256
2 256 305
2 18 67
2 67 116
2 116 165
2 165 214
2 214 263
2 263 312
2 25 74
2 74 123
2 123 172
2 172 221
2 221 270
2 270 319
2 32 81
2 81 130
2 130 179
2 179 228
2 228 277
2 277 326
2 39 88
2 88 137
2 137 186
2 186 235
2 235 284
2 284 333
2 46 95
2 95 144
2 144 193
2 193 242
2 242 291
2 291 340
2 5 54
2 54 103
2 103 152
2 152 201
2 201 250
2 250 299
2 12 61
2 61 110
2 110 159
2 159 208
2 208 257
2 257 306
2 19 68
2 68 117
2 117 166
2 166 215
2 215 264
2 264 313
2 26 75
2 75 124
2 124 173
2 173 222
2 222 271
2 271 320
2 33 82
2 82 131
2 131 180
2 180 229
2 229 278
2 278 327
2 40 89
2 89 138
2 138 187
2 187 236
2 236 285
2 285 334
2 47 96
2 96 145
2 145 194
2 194 243
2 243 292
2 292 341
2 6 55
2 55 104
2 104 153
2 153 202
2 202 251
2 251 300
2 13 62
2 62 111
2 111 160
2 160 209
2 209 258
2 258 307
2 20 69
2 69 118
2 118 167
2 167 216
2 216 265
2 265 314
2 27 76
2 76 125
2 125 174
2 174 223
2 223 272
2 272 321
2 34 83
2 83 132
2 132 181
2 181 230
2 230 279
2 279 328
2 41 90
2 90 139
2 139 188
2 188 237
2 237 286
2 286 335
2 48 97
2 97 146
2 146 195
2 195 244
2 244 293
2 293 342
2 0 1
2 1 2
2 2 3
2 3 4
2 4 5
2 5 6
2 49 50
2 50 51
2 51 52
2 52 53
2 53 54
2 54 55
2 98 99
2 99 100
2 100 101
2 101 102
2 102 103
2 103 104
2 147 148
2 148 149
2 149 150
2 150 151
2 151 152
2 152 153
2 196 197
2 197 198
2 198 199
2 199 200
2 200 201
2 201 202
2 245 246
2 246 247
2 247 248
2 248 249
2 249 250
2 250 251
2 294 295
2 295 296
2 296 297
2 297 298
2 298 299
2 299 300
2 7 8
2 8 9
2 9 10
2 10 11
2 11 12
2 12 13
2 56 57
2 57 58
2 58 59
2 59 60
2 60 61
2 61 62
2 105 106
2 106 107
2 107 108
2 108 109
2 109 110
2 110 111
2 154 155
2 155 156
2 156 157
2 157 158
2 158 159
2 159 160
2 203 204
2 204 205
2 205 206
2 206 207
2 207 208
2 208 209
2 252 253
2 253 254
2 254 255
2 255 256
2 256 257
2 257 258
2 301 302
2 302 303
2 303 304
2 304 305
2 305 306
2 306 307
2 14 15
2 15 16
2 16 17
2 17 18
2 18 19
2 19 20
2 63 64
2 64 65
2 65 66
2 66 67
2 67 68
2 68 69
2 112 113
2 113 114
2 114 115
2 115 116
2 116 117
2 117 118
2 161 162
2 162 163
2 163 164
2 164 165
2 165 166
2 166 167
2 210 211
2 211 212
2 212 213
2 213 214
2 214 215
2 215 216
2 259 260
2 260 261
2 261 262
2 262 263
2 263 264
2 264 265
2 308 309
2 309 310
2 310 311
2 311 312
2 312 313
2 313 314
2 21 22
2 22 23
2 23 24
2 24 25
2 25 26
2 26 27
2 70 71
2 71 72
2 72 73
2 73 74
2 74 75
2 75 76
2 119 120
2 120 121
2 121 122
2 122 123
2 123 124
2 124 125
2 168 169
2 169 170
2 170 171
2 171 172
2 172 173
2 173 174
2 217 218
2 218 219
2 219 220
2 220 221
2 221 222
2 222 223
2 266 267
2 267 268
2 268 269
2 269 270
2 270 271
2 271 272
2 315 316
2 316 317
2 317 318
2 318 319
2 319 320
2 320 321
2 28 29
2 29 30
2 30 31
2 31 32
2 32 33
2 33 34
2 77 78
2 78 79
2 79 80
2 80 81
2 81 82
2 82 83
2 126 127
2 127 128
2 128 129
2 129 130
2 130 131
2 131 132
2 175 176
2 176 177
2 177 178
2 178 179
2 179 180
2 180 181
2 224 225
2 225 226
2 226 227
2 227 228
2 228 229
2 229 230
2 273 274
2 274 275
2 275 276
2 276 277
2 277 278
2 278 279
2 322 323
2 323 324
2 324 325
2 325 326
2 326 327
2 327 328
2 35 36
2 36 37
2 37 38
2 38 39
2 39 40
2 40 41
2 84 85
2 85 86
2 86 87
2 87 88
2 88 89
2 89 90
2 133 134
2 134 135
2 135 136
2 136 137
2 137 138
2 138 139
2 182 183
2 183 184
2 184 185
2 185 186
2 186 187
2 187 188
2 231 232
2 232 233
2 233 234
2 234 235
2 235 236
2 236 237
2 280 281
2 281 282
2 282 283
2 283 284
2 284 285
2 285 286
2 329 330
2 330 331
2 331 332
2 332 333
2 333 334
2 334 335
2 42 43
2 43 44
2 44 45
2 45 46
2 46 47
2 47 48
2 91 92
2 92 93
2 93 94
2 94 95
2 95 96
2 96 97
2 140 141
2 141 142
2 142 143
2 143 144
2 144 145
2 145 146
2 189 190
2 190 191
2 191 192
2 192 193
2 193 194
2 194 195
2 238 239
2 239 240
2 240 241
2 241 242
2 242 243
2 243 244
2 287 288
2 288 289
2 289 290
2 290 291
2 291 292
2 292 293
2 336 337
2 337 338
2 338 339
2 339 340
2 340 341
2 341 342
2 0 7
2 7 14
2 14 21
2 21 28
2 28 35
2 35 42
2 1 8
2 8 15
2 15 22
2 22 29
2 29 36
2 36 43
2 2 9
2 9 16
2 16 23
2 23 30
2 30 37
2 37 44
2 3 10
2 10 17
2 17 24
2 24 31
2 31 38
2 38 45
2 4 11
2 11 18
2 18 25
2 25 32
2 32 39
2 39 46
2 5 12
2 12 19
2 19 26
2 26 33
2 33 40
2 40 47
2 6 13
2 13 20
2 20 27
2 27 34
2 34 41
2 41 48
2 49 56
2 56 63
2 63 70
2 70 77
2 77 84
2 84 91
2 50 57
2 57 64
2 64 71
2 71 78
2 78 85
2 85 92
2 51 58
2 58 65
2 65 72
2 72 79
2 79 86
2 86 93
2 52 59
2 59 66
2 66 73
2 73 80
2 80 87
2 87 94
2 53 60
2 60 67
2 67 74
2 74 81
2 81 88
2 88 95
2 54 61
2 61 68
2 68 75
2 75 82
2 82 89
2 89 96
2 55 62
2 62 69
2 69 76
2 76 83
2 83 90
2 90 97
2 98 105
2 105 112
2 112 119
2 119 126
2 126 133
2 133 140
2 99 106
2 106 113
2 113 120
2 120 127
2 127 134
2 134 141
2 100 107
2 107 114
2 114 121
2 121 128
2 128 135
2 135 142
2 101 108
2 108 115
2 115 122
2 122 129
2 129 136
2 136 143
2 102 109
2 109 116
2 116 123
2 123 130
2 130 137
2 137 144
2 103 110
2 110 117
2 117 124
2 124 131
2 131 138
2 138 145
2 104 111
2 111 118
2 118 125
2 125 132
2 132 139
2 139 146
2 147 154
2 154 161
2 161 168
2 168 175
2 175 182
2 182 189
2 148 155
2 155 162
2 162 169
2 169 176
2 176 183
2 183 190
2 149 156
2 156 163
2 163 170
2 170 177
2 177 184
2 184 191
2 150 157
2 157 164
2 164 171
2 171 178
2 178 185
2 185 192
2 151 158
2 158 165
2 165 172
2 172 179
2 179 186
2 186 193
2 152 159
2 159 166
2 166 173
2 173 180
2 180 187
2 187 194
2 153 160
2 160 167
2 167 174
2 174 181
2 181 188
2 188 195
2 196 203
2 203 210
2 210 217
2 217 224
2 224 231
2 231 238
2 197 204
2 204 211
2 211 218
2 218 225
2 225 232
2 232 239
2 198 205
2 205 212
2 212 219
2 219 226
2 226 233
2 233 240
2 199 206
2 206 213
2 213 220
2 220 227
2 227 234
2 234 241
2 200 207
2 207 214
2 214 221
2 221 228
2 228 235
2 235 242
2 201 208
2 208 215
2 215 222
2 222 229
2 229 236
2 236 243
2 202 209
2 209 216
2 216 223
2 223 230
2 230 237
2 237 244
2 245 252
2 252 259
2 259 266
2 266 273
2 273 280
2 280 287
2 246 253
2 253 260
2 260 267
2 267 274
2 274 281
2 281 288
2 247 254
2 254 261
2 261 268
2 268 275
2 275 282
2 282 289
2 248 255
2 255 262
2 262 269
2 269 276
2 276 283
2 283 290
2 249 256
2 256 263
2 263 270
2 270 277
2 277 284
2 284 291
2 250 257
2 257 264
2 264 271
2 271 278
2 278 285
2 285 292
2 251 258
2 258 265
2 265 272
2 272 279
2 279 286
2 286 293
2 294 301
2 301 308
2 308 315
2 315 322
2 322 329
2 329 336
2 295 302
2 302 309
2 309 316
2 316 323
2 323 330
2 330 337
2 296 303
2 303 310
2 310 317
2 317 324
2 324 331
2 331 338
2 297 304
2 304 311
2 311 318
2 318 325
2 325 332
2 332 339
2 298 305
2 305 312
2 312 319
2 319 326
2 326 333
2 333 340
2 299 306
2 306 313
2 313 320
2 320 327
2 327 334
2 334 341
2 300 307
2 307 314
2 314 321
2 321 328
2 328 335
2 335 342
