ply
format ascii 1.0
comment  Some general nonconvex polygons
comment  Data polygon taken from polypartition library by Ivan Fratric with
comment  ugly colors added for debugging utility.
element vertex 132
property double x
property double y
property double z
element color 132
property float r
property float g
property float b
element face 3
property list int int vertex_index
end_header
170  75   0
179  87   0
178  108  0
163  125  0
163  138  0
212  144  0
230  99   0
230  80   0
254  79   0
254  98   0
235  163  0
212  173  0
189  172  0
189  242  0
219  301  0
228  358  0
254  361  0
253  377  0
208  377  0
208  355  0
196  310  0
150  266  0
108  310  0
96   355  0
96   377  0
51   377  0
50   361  0
76   358  0
85   301  0
115  242  0
115  172  0
92   173  0
69   163  0
50   98   0
50   79   0
74   80   0
74   99   0
92   144  0
141  138  0
141  125  0
126  108  0
125  87   0
134  75   0
152  71   0
170  0  75
179  0  87
178  0  108
163  0  125
163  0  138
212  0  144
230  0  99
230  0  80
254  0  79
254  0  98
235  0  163
212  0  173
189  0  172
189  0  242
219  0  301
228  0  358
254  0  361
253  0  377
208  0  377
208  0  355
196  0  310
150  0  266
108  0  310
96   0  355
96   0  377
51   0  377
50   0  361
76   0  358
85   0  301
115  0  242
115  0  172
92   0  173
69   0  163
50   0  98
50   0  79
74   0  80
74   0  99
92   0  144
141  0  138
141  0  125
126  0  108
125  0  87
134  0  75
152  0  71
0  170  75
0  179  87
0  178  108
0  163  125
0  163  138
0  212  144
0  230  99
0  230  80
0  254  79
0  254  98
0  235  163
0  212  173
0  189  172
0  189  242
0  219  301
0  228  358
0  254  361
0  253  377
0  208  377
0  208  355
0  196  310
0  150  266
0  108  310
0  96   355
0  96   377
0  51   377
0  50   361
0  76   358
0  85   301
0  115  242
0  115  172
0  92   173
0  69   163
0  50   98
0  50   79
0  74   80
0  74   99
0  92   144
0  141  138
0  141  125
0  126  108
0  125  87
0  134  75
0  152  71
0.0    0.0    0.0
0.999  1.0    0.385
1.0    0.625  1.0
0.0    0.837  1.0
0.842  0.266  0.0
0.0    0.503  0.161
0.0    0.371  0.835
0.578  0.0    0.408
1.0    0.796  0.708
0.656  0.525  0.0
0.0    1.0    0.774
0.0    0.494  0.526
0.325  0.258  0.0
0.547  0.531  0.578
0.409  0.0    0.0
0.0    0.0    0.354
1.0    0.173  0.434
0.968  1.0    0.967
0.0    0.238  0.145
0.567  0.671  1.0
0.63   0.715  0.517
0.378  0.314  0.317
0.758  0.161  0.884
1.0    0.556  0.119
0.0    0.247  0.317
0.474  0.472  0.375
0.179  0.0    0.109
0.004  0.688  0.601
1.0    0.903  1.0
0.468  0.856  0.0
0.356  0.293  0.515
0.0    0.58   0.812
0.723  0.452  0.624
1.0    0.511  0.414
1.0    0.745  0.018
0.763  0.0    0.188
0.662  0.504  0.423
0.585  0.339  0.0
0.625  0.701  0.7
0.469  0.583  0.0
1.0    0.608  0.692
0.659  1.0    0.99
0.126  0.136  0.785
0.578  0.483  0.822
0.0    0.0    0.0
0.999  1.0    0.385
1.0    0.625  1.0
0.0    0.837  1.0
0.842  0.266  0.0
0.0    0.503  0.161
0.0    0.371  0.835
0.578  0.0    0.408
1.0    0.796  0.708
0.656  0.525  0.0
0.0    1.0    0.774
0.0    0.494  0.526
0.325  0.258  0.0
0.547  0.531  0.578
0.409  0.0    0.0
0.0    0.0    0.354
1.0    0.173  0.434
0.968  1.0    0.967
0.0    0.238  0.145
0.567  0.671  1.0
0.63   0.715  0.517
0.378  0.314  0.317
0.758  0.161  0.884
1.0    0.556  0.119
0.0    0.247  0.317
0.474  0.472  0.375
0.179  0.0    0.109
0.004  0.688  0.601
1.0    0.903  1.0
0.468  0.856  0.0
0.356  0.293  0.515
0.0    0.58   0.812
0.723  0.452  0.624
1.0    0.511  0.414
1.0    0.745  0.018
0.763  0.0    0.188
0.662  0.504  0.423
0.585  0.339  0.0
0.625  0.701  0.7
0.469  0.583  0.0
1.0    0.608  0.692
0.659  1.0    0.99
0.126  0.136  0.785
0.578  0.483  0.822
0.0    0.0    0.0
0.999  1.0    0.385
1.0    0.625  1.0
0.0    0.837  1.0
0.842  0.266  0.0
0.0    0.503  0.161
0.0    0.371  0.835
0.578  0.0    0.408
1.0    0.796  0.708
0.656  0.525  0.0
0.0    1.0    0.774
0.0    0.494  0.526
0.325  0.258  0.0
0.547  0.531  0.578
0.409  0.0    0.0
0.0    0.0    0.354
1.0    0.173  0.434
0.968  1.0    0.967
0.0    0.238  0.145
0.567  0.671  1.0
0.63   0.715  0.517
0.378  0.314  0.317
0.758  0.161  0.884
1.0    0.556  0.119
0.0    0.247  0.317
0.474  0.472  0.375
0.179  0.0    0.109
0.004  0.688  0.601
1.0    0.903  1.0
0.468  0.856  0.0
0.356  0.293  0.515
0.0    0.58   0.812
0.723  0.452  0.624
1.0    0.511  0.414
1.0    0.745  0.018
0.763  0.0    0.188
0.662  0.504  0.423
0.585  0.339  0.0
0.625  0.701  0.7
0.469  0.583  0.0
1.0    0.608  0.692
0.659  1.0    0.99
0.126  0.136  0.785
0.578  0.483  0.822
44 0 1 2 3 4 5 6 7 8 9 10 11 12 13 14 15 16 17 18 19 20 21 22 23 24 25 26 27 28 29 30 31 32 33 34 35 36 37 38 39 40 41 42 43
44 44 45 46 47 48 49 50 51 52 53 54 55 56 57 58 59 60 61 62 63 64 65 66 67 68 69 70 71 72 73 74 75 76 77 78 79 80 81 82 83 84 85 86 87
44 88 89 90 91 92 93 94 95 96 97 98 99 100 101 102 103 104 105 106 107 108 109 110 111 112 113 114 115 116 117 118 119 120 121 122 123 124 125 126 127 128 129 130 131
