ply
format ascii 1.0
comment Point cloud test containing some standard ply field names + extras
element vertex 20
property float x
property float y
property float z
property float nx
property float ny
property float nz
property uint8 red
property uint8 green
property uint8 blue
property float a[0]
property float a[1]
end_header
 0.00000000e+00  1.00000000e+00 0    1.00000000e+00 -0.00000000e+00 1     0 255  0   0.00000000e+00 1.00000000e+00
 3.24699469e-01  9.45817242e-01 0    9.45817242e-01 -3.24699469e-01 1    26 229  0   1.05429745e-01 8.94570255e-01
 6.14212713e-01  7.89140509e-01 0    7.89140509e-01 -6.14212713e-01 1    96 159  0   3.77257256e-01 6.22742744e-01
 8.37166478e-01  5.46948158e-01 0    5.46948158e-01 -8.37166478e-01 1   179  76  0   7.00847712e-01 2.99152288e-01
 9.69400266e-01  2.45485487e-01 0    2.45485487e-01 -9.69400266e-01 1   240  15  0   9.39736876e-01 6.02631244e-02
 9.96584493e-01 -8.25793455e-02 0   -8.25793455e-02 -9.96584493e-01 1   254   1  0   9.93180652e-01 6.81934830e-03
 9.15773327e-01 -4.01695425e-01 0   -4.01695425e-01 -9.15773327e-01 1   214  41  0   8.38640786e-01 1.61359214e-01
 7.35723911e-01 -6.77281572e-01 0   -6.77281572e-01 -7.35723911e-01 1   138 117  0   5.41289673e-01 4.58710327e-01
 4.75947393e-01 -8.79473751e-01 0   -8.79473751e-01 -4.75947393e-01 1    57 198  0   2.26525921e-01 7.73474079e-01
 1.64594590e-01 -9.86361303e-01 0   -9.86361303e-01 -1.64594590e-01 1     6 249  0   2.70913791e-02 9.72908621e-01
-1.64594590e-01 -9.86361303e-01 0   -9.86361303e-01  1.64594590e-01 1     6 249  0   2.70913791e-02 9.72908621e-01
-4.75947393e-01 -8.79473751e-01 0   -8.79473751e-01  4.75947393e-01 1    57 198  0   2.26525921e-01 7.73474079e-01
-7.35723911e-01 -6.77281572e-01 0   -6.77281572e-01  7.35723911e-01 1   138 117  0   5.41289673e-01 4.58710327e-01
-9.15773327e-01 -4.01695425e-01 0   -4.01695425e-01  9.15773327e-01 1   214  41  0   8.38640786e-01 1.61359214e-01
-9.96584493e-01 -8.25793455e-02 0   -8.25793455e-02  9.96584493e-01 1   254   1  0   9.93180652e-01 6.81934830e-03
-9.69400266e-01  2.45485487e-01 0    2.45485487e-01  9.69400266e-01 1   240  15  0   9.39736876e-01 6.02631244e-02
-8.37166478e-01  5.46948158e-01 0    5.46948158e-01  8.37166478e-01 1   179  76  0   7.00847712e-01 2.99152288e-01
-6.14212713e-01  7.89140509e-01 0    7.89140509e-01  6.14212713e-01 1    96 159  0   3.77257256e-01 6.22742744e-01
-3.24699469e-01  9.45817242e-01 0    9.45817242e-01  3.24699469e-01 1    26 229  0   1.05429745e-01 8.94570255e-01
-2.44929360e-16  1.00000000e+00 0    1.00000000e+00  2.44929360e-16 1     0 255  0   5.99903913e-32 1.00000000e+00
