ply
format ascii 1.0
element vertex 20
property float x
property float y
property float z
element color 20
property float r
property float g
property float b
element edge 2
property list uchar int vertex_index
end_header
 0.00000000e+00  1.00000000e+00 0
 3.24699469e-01  9.45817242e-01 0
 6.14212713e-01  7.89140509e-01 0
 8.37166478e-01  5.46948158e-01 0
 9.69400266e-01  2.45485487e-01 0
 9.96584493e-01 -8.25793455e-02 0
 9.15773327e-01 -4.01695425e-01 0
 7.35723911e-01 -6.77281572e-01 0
 4.75947393e-01 -8.79473751e-01 0
 1.64594590e-01 -9.86361303e-01 0
-1.64594590e-01 -9.86361303e-01 0
-4.75947393e-01 -8.79473751e-01 0
-7.35723911e-01 -6.77281572e-01 0
-9.15773327e-01 -4.01695425e-01 0
-9.96584493e-01 -8.25793455e-02 0
-9.69400266e-01  2.45485487e-01 0
-8.37166478e-01  5.46948158e-01 0
-6.14212713e-01  7.89140509e-01 0
-3.24699469e-01  9.45817242e-01 0
-2.44929360e-16  1.00000000e+00 0
 0.0        1.0         0.0
 0.101961   0.898039    0.0
 0.376471   0.623529    0.0
 0.701961   0.298039    0.0
 0.941176   0.0588235   0.0
 0.996078   0.00392157  0.0
 0.839216   0.160784    0.0
 0.541176   0.458824    0.0
 0.223529   0.776471    0.0
 0.0235294  0.976471    0.0
 0.0235294  0.976471    0.0
 0.223529   0.776471    0.0
 0.541176   0.458824    0.0
 0.839216   0.160784    0.0
 0.996078   0.00392157  0.0
 0.941176   0.0588235   0.0
 0.701961   0.298039    0.0
 0.376471   0.623529    0.0
 0.101961   0.898039    0.0
 0.0        1.0         0.0
5 0 1 2 3 4
5 10 11 12 13 14
