ply
format ascii 1.0
element metadata 1
property int version
property int srid
property int model_type
element vertex 26
property double x
property double y
property double z
element triangle 0
property int v1
property int v2
property int v3
element polygon 2
property list int int outer_vertex_index
property list int int inner_polygon_vertex_counts
property list int int inner_vertex_index
property list int int triangle_index
element bounding_box 1
property int vertex_min
property int vertex_max
element hullxy 1
property list int int vertex_index
end_header
1 32755 2
0.0000000000000000 0.0000000000000000 0.0000000000000000
0.0000000000000000 3.0000000000000000 0.0000000000000000
5.0000000000000000 3.0000000000000000 0.0000000000000000
5.0000000000000000 0.0000000000000000 0.0000000000000000
1.0000000000000000 1.0000000000000000 0.0000000000000000
2.0000000000000000 1.0000000000000000 0.0000000000000000
2.0000000000000000 2.0000000000000000 0.0000000000000000
1.0000000000000000 2.0000000000000000 0.0000000000000000
3.0000000000000000 1.0000000000000000 0.0000000000000000
4.0000000000000000 1.0000000000000000 0.0000000000000000
4.0000000000000000 2.0000000000000000 0.0000000000000000
3.0000000000000000 2.0000000000000000 0.0000000000000000
0.0000000000000000 6.0000000000000000 0.0000000000000000
0.0000000000000000 9.0000000000000000 0.0000000000000000
5.0000000000000000 9.0000000000000000 0.0000000000000000
5.0000000000000000 6.0000000000000000 0.0000000000000000
1.0000000000000000 7.0000000000000000 0.0000000000000000
2.0000000000000000 7.0000000000000000 0.0000000000000000
2.0000000000000000 8.0000000000000000 0.0000000000000000
1.0000000000000000 8.0000000000000000 0.0000000000000000
3.0000000000000000 7.0000000000000000 0.0000000000000000
4.0000000000000000 7.0000000000000000 0.0000000000000000
4.0000000000000000 8.0000000000000000 0.0000000000000000
3.0000000000000000 8.0000000000000000 0.0000000000000000
0.0000000000000000 0.0000000000000000 0.0000000000000000
5.0000000000000000 9.0000000000000000 0.0000000000000000
4 0 1 2 3 2 4 4 8 4 5 6 7 8 9 10 11 0
4 12 13 14 15 2 4 4 8 16 17 18 19 20 21 22 23 0
24 25
4 13 0 3 14
