ply
format ascii 1.0
comment Test of triangle mesh and reading of XY hull
element vertex 22
property float x
property float y
property float z
property float r
property float g
property float b
element triangle 20
property int v1
property int v2
property int v3
element hullxy 1
property list int int vertex_index
end_header
 0 0 0.1 1 1 1
 0 0 -0.1 0 0 0
 0.00000000e+00  1.00000000e+00 0   0.00e+00  1.00e+00 0
 3.09016994e-01  9.51056516e-01 0   3.09e-01  9.51e-01 0
 5.87785252e-01  8.09016994e-01 0   5.87e-01  8.09e-01 0
 8.09016994e-01  5.87785252e-01 0   8.09e-01  5.87e-01 0
 9.51056516e-01  3.09016994e-01 0   9.51e-01  3.09e-01 0
 1.00000000e+00  6.12323400e-17 0   1.00e+00  6.12e-17 0
 9.51056516e-01 -3.09016994e-01 0   9.51e-01 -3.09e-01 0
 8.09016994e-01 -5.87785252e-01 0   8.09e-01 -5.87e-01 0
 5.87785252e-01 -8.09016994e-01 0   5.87e-01 -8.09e-01 0
 3.09016994e-01 -9.51056516e-01 0   3.09e-01 -9.51e-01 0
 1.22464680e-16 -1.00000000e+00 0   1.22e-16 -1.00e+00 0
-3.09016994e-01 -9.51056516e-01 0  -3.09e-01 -9.51e-01 0
-5.87785252e-01 -8.09016994e-01 0  -5.87e-01 -8.09e-01 0
-8.09016994e-01 -5.87785252e-01 0  -8.09e-01 -5.87e-01 0
-9.51056516e-01 -3.09016994e-01 0  -9.51e-01 -3.09e-01 0
-1.00000000e+00  0.00000000e+00 0  -1.00e+00  0.00e+00 0
-9.51056516e-01  3.09016994e-01 0  -9.51e-01  3.09e-01 0
-8.09016994e-01  5.87785252e-01 0  -8.09e-01  5.87e-01 0
-5.87785252e-01  8.09016994e-01 0  -5.87e-01  8.09e-01 0
-3.09016994e-01  9.51056516e-01 0  -3.09e-01  9.51e-01 0
0 2 3
0 4 5
0 6 7
0 8 9
0 10 11
0 12 13
0 14 15
0 16 17
0 18 19
0 20 21
1 3 4
1 5 6
1 7 8
1 9 10
1 11 12
1 13 14
1 15 16
1 17 18
1 19 20
1 21 2
20 2 3 4 5 6 7 8 9 10 11 12 13 14 15 16 17 18 19 20 21
